<?xml version="1.0" encoding="UTF-8"?>
<svg width="120px" height="29px" viewBox="0 0 120 29" version="1.1" xmlns="http://www.w3.org/2000/svg" xmlns:xlink="http://www.w3.org/1999/xlink">
    <title>Combined Shape</title>
    <g id="Symbols" stroke="none" stroke-width="1" fill="none" fill-rule="evenodd">
        <g id="Header" transform="translate(-80.000000, -21.000000)" fill="#121212">
            <path d="M154.743795,28.2 C155.675866,28.2 156.538168,28.3565797 157.332054,28.669739 C158.12594,28.9828984 158.822284,29.424653 159.421086,29.9956691 L159.421086,29.9956691 L159.521337,28.4805108 L163.4,28.4805108 L163.4,40.8656302 C163.4,42.660633 163.054538,44.2270961 162.365645,45.5643531 C161.676752,46.9016102 160.711489,47.9416991 159.471211,48.6846197 C158.230256,49.4288728 156.773218,49.8 155.100773,49.8 C154.178185,49.8 153.199375,49.67407 152.162987,49.4215436 C151.1266,49.1690172 150.067182,48.7765686 148.983378,48.2428651 L148.983378,48.2428651 L150.223656,44.8913937 C150.699175,45.2838423 151.365037,45.6183232 152.220564,45.8941699 C153.075415,46.1700167 153.897751,46.30794 154.686895,46.30794 C156.103291,46.30794 157.225028,45.8428651 158.052106,44.9120489 C158.879184,43.9818989 159.293061,42.72593 159.293061,41.146141 L159.293061,41.146141 L159.293061,41.1181566 C158.693582,41.6418656 158.009431,42.0503054 157.239253,42.3454747 C156.469752,42.6399778 155.637933,42.7872293 154.743795,42.7872293 C153.412749,42.7872293 152.222597,42.4714048 151.171984,41.840422 C150.12205,41.2094392 149.297004,40.3445863 148.698202,39.2451971 C148.099401,38.1471405 147.8,36.8958356 147.8,35.4939478 C147.8,34.0907274 148.099401,32.8400888 148.698202,31.7413659 C149.297004,30.642643 150.12205,29.7777901 151.171984,29.1468073 C152.222597,28.5158245 153.412749,28.2 154.743795,28.2 Z M145.4,28.8 L145.4,42.9183177 L141.819022,42.9183177 L141.648209,41.1819477 C141.089188,41.8217689 140.421468,42.3180662 139.644374,42.6708397 C138.86728,43.0242839 138.014569,43.2 137.086243,43.2 C135.286301,43.2 133.92183,42.62121 132.992828,41.4643007 C132.064501,40.30605 131.6,38.602543 131.6,36.3531088 L131.6,36.3531088 L131.6,28.8134134 L135.707593,28.8134134 L135.707593,36.3812771 C135.707593,37.4355736 135.930391,38.2497695 136.375313,38.8231941 C136.82091,39.39796 137.460274,39.6850077 138.29408,39.6850077 C139.184599,39.6850077 139.907006,39.3738158 140.461977,38.7534442 C141.015597,38.1317312 141.293082,37.3363141 141.293082,36.367193 L141.293082,36.367193 L141.30726,36.367193 L141.30726,28.8 L145.4,28.8 Z M114.848379,21.6 C117.467879,21.6 119.514635,22.2176861 120.989316,23.4523942 C122.463328,24.6871023 123.2,26.362825 123.2,28.4782339 C123.2,29.8862926 122.866792,31.1070529 122.200375,32.1418433 C121.533289,33.1766336 120.578493,33.9782972 119.33398,34.5468341 C118.089466,35.115371 116.594712,35.3989753 114.848379,35.3989753 L114.848379,35.3989753 L111.848165,35.3989753 L111.848165,42.5721045 L107.551918,42.5721045 L107.551918,35.4003036 L103.62568,35.4003036 C103.113154,37.1882725 102.150329,38.6720476 100.727168,39.8463154 C98.5017641,41.6821051 95.3135352,42.6 91.1638194,42.6 L91.1638194,42.6 L84.8,42.6 L84.8,39 L80,39 L80,35.4003036 L84.8,35.4 L84.8,28.8 L80,28.8 L80,25.2 L84.8,25.2 L84.8,21.6 L91.1638194,21.6278955 C95.3135352,21.6278955 98.5017641,22.5391486 100.727168,24.3609906 C102.904397,26.1443102 104.00907,28.6522487 104.055906,31.876836 L104.055906,31.876836 L107.551918,31.876836 L107.551918,21.6 Z M129.2,21 L129.2,42.6 L125,42.6 L125,21 L129.2,21 Z M170,28.8 L170,42.6 L165.8,42.6 L165.8,28.8 L170,28.8 Z M181.350693,28.2 C183.010559,28.2 184.333856,28.7432191 185.320584,29.8303279 C186.306636,30.9174367 186.8,32.4304024 186.8,34.369225 L186.8,34.369225 L186.8,42.6 L182.688183,42.6 L182.688183,35.1599106 C182.688183,32.8730253 181.825133,31.7295827 180.099035,31.7295827 C179.207601,31.7295827 178.483775,32.0535022 177.929585,32.7033532 C177.37472,33.3525335 177.096949,34.2659463 177.096949,35.4422504 L177.096949,35.4422504 L177.096949,42.6 L173,42.6 L173,28.4823398 L176.584661,28.4823398 L176.755649,30.2038748 C177.315246,29.5640835 177.98568,29.0704918 178.76898,28.7217586 C179.550928,28.3743666 180.41195,28.2 181.350693,28.2 Z M194.619521,28.2 C195.450936,28.2 196.32715,28.3032659 197.246845,28.5117709 C198.167198,28.7189604 199.00586,29.0537523 199.764147,29.5148312 L199.764147,29.5148312 L198.003155,32.547691 C197.596012,32.2793313 197.06699,32.0418855 196.41543,31.834696 C195.763211,31.6268488 195.210472,31.5229251 194.757871,31.5229251 C194.49896,31.5229251 194.214355,31.5762024 193.904716,31.6820993 C193.595076,31.7879962 193.440257,31.9938702 193.440257,32.2984059 C193.440257,32.6397753 193.655028,32.9212899 194.085229,33.1429498 C194.514771,33.3646097 195.026006,33.5908738 195.617614,33.8210844 C196.25534,34.0703695 196.911512,34.3637236 197.586789,34.7004887 C198.261408,35.0379117 198.832594,35.4851779 199.299688,36.043603 C199.766123,36.6026858 200,37.3334399 200,38.2384963 C200,39.1435527 199.750312,39.9229799 199.250936,40.5787512 C198.75156,41.2338647 198.086165,41.7344083 197.254092,42.0810396 C196.422018,42.4270132 195.501664,42.6 194.494348,42.6 C193.541713,42.6 192.55482,42.4335906 191.53301,42.1014297 C190.511859,41.7692687 189.534189,41.2568858 188.6,40.5642808 L188.6,40.5642808 L190.486165,37.559704 C191.281345,38.0858996 192.013939,38.5035674 192.683946,38.813365 C193.354612,39.1225049 193.953467,39.2770749 194.480513,39.2770749 C194.886997,39.2770749 195.215083,39.1843329 195.464771,39.0001644 C195.714459,38.8153382 195.839632,38.5798657 195.839632,38.2937469 C195.839632,37.8780523 195.605756,37.5412872 195.13932,37.2827936 C194.672226,37.0243 194.133981,36.7704106 193.523266,36.5217832 C192.876318,36.2534235 192.226734,35.9515188 191.574515,35.6147536 C190.922954,35.2773307 190.377462,34.8412461 189.938696,34.305842 C189.499272,33.770438 189.279889,33.0784908 189.279889,32.228685 C189.279889,31.0565843 189.744348,30.0923309 190.673266,29.335267 C191.602843,28.5782031 192.917822,28.2 194.619521,28.2 Z M155.6,31.8 C154.560464,31.8 153.700692,32.1705463 153.020011,32.911639 C152.340004,33.6534178 152,34.5832146 152,35.7003431 C152,36.8167854 152.340004,37.7465822 153.020011,38.4876748 C153.700692,39.2294537 154.560464,39.6 155.6,39.6 C156.638863,39.6 157.499308,39.2294537 158.179316,38.4876748 C158.859323,37.7465822 159.2,36.8167854 159.2,35.7003431 C159.2,34.5832146 158.859323,33.6534178 158.179316,32.911639 C157.499308,32.1705463 156.638863,31.8 155.6,31.8 Z M91.4203803,25.2 L89,25.2 L89,39 L91.4203803,39 C94.1245339,39 96.1980063,38.3936167 97.6388038,37.1808501 C99.0796013,35.9694493 99.8,34.2657034 99.8,32.0709783 C99.8,29.8864961 99.0796013,28.1943589 97.6388038,26.9966154 C96.1980063,25.7988718 94.1245339,25.2 91.4203803,25.2 L91.4203803,25.2 Z M114.441816,25.2 L111.8,25.2 L111.8,31.8 L114.441816,31.8 C115.932018,31.8 117.064323,31.4871509 117.838732,30.860797 C118.613141,30.2350989 119,29.444122 119,28.4865547 C119,27.5289874 118.613141,26.7426016 117.838732,26.1254298 C117.064323,25.5089138 115.932018,25.2 114.441816,25.2 L114.441816,25.2 Z M168.2,21.6 C168.919715,21.6 169.499762,21.7926663 169.940143,22.1773753 C170.37981,22.5627078 170.6,23.0696259 170.6,23.7 C170.6,24.3297506 170.37981,24.8372922 169.940143,25.2226247 C169.499762,25.6079572 168.919715,25.8 168.2,25.8 C167.480285,25.8 166.899525,25.6079572 166.459857,25.2226247 C166.019477,24.8372922 165.8,24.3297506 165.8,23.7 C165.8,23.0696259 166.019477,22.5627078 166.459857,22.1773753 C166.899525,21.7926663 167.480285,21.6 168.2,21.6 Z" id="Combined-Shape"></path>
        </g>
    </g>
</svg>